<?xml version="1.0" standalone="no"?>
<!DOCTYPE svg PUBLIC "-//W3C//DTD SVG 20010904//EN"
 "http://www.w3.org/TR/2001/REC-SVG-20010904/DTD/svg10.dtd">
<svg version="1.0" xmlns="http://www.w3.org/2000/svg"
 width="560.000000pt" height="560.000000pt" viewBox="0 0 560.000000 560.000000"
 preserveAspectRatio="xMidYMid meet">

<g transform="translate(0.000000,560.000000) scale(0.100000,-0.100000)"
fill="#000000" stroke="none">
<path d="M2740 3184 c0 -14 4 -23 10 -19 6 3 10 15 10 26 0 10 -4 19 -10 19
-5 0 -10 -12 -10 -26z"/>
<path d="M2826 2913 c-12 -42 -28 -144 -24 -149 6 -5 38 159 33 164 -2 2 -6
-5 -9 -15z"/>
<path d="M2792 2715 c0 -16 2 -22 5 -12 2 9 2 23 0 30 -3 6 -5 -1 -5 -18z"/>
<path d="M1086 2523 c-6 -14 -5 -15 5 -6 7 7 10 15 7 18 -3 3 -9 -2 -12 -12z"/>
<path d="M2784 2320 c0 -107 2 -151 3 -97 2 53 2 141 0 195 -1 53 -3 9 -3 -98z"/>
<path d="M1055 2478 c-13 -20 -17 -21 -26 -8 -9 12 -9 11 -4 -5 4 -11 7 -28 7
-39 -1 -23 1 -21 26 32 22 47 21 54 -3 20z"/>
<path d="M4470 2470 c13 -10 20 -22 16 -28 -9 -14 14 -63 27 -55 5 3 6 -4 2
-18 -4 -17 -4 -20 3 -10 7 10 10 4 9 -21 0 -20 -6 -35 -11 -34 -6 2 -8 1 -3
-1 4 -3 7 -11 7 -19 0 -9 4 -13 8 -10 4 3 13 -10 20 -27 l12 -32 -19 24 c-18
24 -18 23 -2 -38 8 -34 18 -56 20 -49 2 7 11 19 18 27 8 8 12 23 9 35 -3 12
-6 27 -6 34 0 7 -5 10 -12 6 -7 -4 -8 -3 -4 4 9 15 -4 63 -15 56 -5 -3 -6 2
-3 10 9 23 -62 163 -82 163 -13 0 -11 -4 6 -17z m38 -65 c-3 -3 -9 2 -12 12
-6 14 -5 15 5 6 7 -7 10 -15 7 -18z"/>
<path d="M2195 2423 c-44 -19 -91 -39 -104 -44 -13 -5 -22 -12 -19 -14 2 -3
42 12 89 31 46 20 95 39 109 43 13 4 20 10 14 13 -5 4 -46 -9 -89 -29z"/>
<path d="M3290 2425 c0 -5 89 -45 99 -45 8 1 -81 49 -91 50 -5 0 -8 -2 -8 -5z"/>
<path d="M2205 2376 c-62 -23 -126 -55 -112 -56 4 0 22 7 40 16 41 22 131 43
182 44 30 0 36 3 25 10 -24 15 -70 11 -135 -14z"/>
<path d="M1006 2375 c-9 -26 -7 -32 5 -12 6 10 9 21 6 23 -2 3 -7 -2 -11 -11z"/>
<path d="M3063 2365 c-17 -14 -36 -39 -42 -56 -9 -27 -9 -30 4 -19 8 7 15 18
15 25 0 7 16 27 35 44 42 37 33 41 -12 6z"/>
<path d="M3200 2384 c14 -3 42 -9 64 -14 24 -5 35 -5 29 1 -5 5 -34 11 -64 14
-30 2 -43 2 -29 -1z"/>
<path d="M3425 2362 c6 -5 46 -28 90 -51 44 -23 71 -34 60 -26 -23 19 -165 92
-150 77z"/>
<path d="M2020 2340 c-19 -11 -31 -19 -27 -20 11 0 67 29 67 35 0 7 -1 7 -40
-15z"/>
<path d="M3349 2340 c55 -25 64 -25 26 0 -16 11 -39 20 -50 20 -12 0 -3 -8 24
-20z"/>
<path d="M2450 2330 c6 -11 13 -20 16 -20 2 0 0 9 -6 20 -6 11 -13 20 -16 20
-2 0 0 -9 6 -20z"/>
<path d="M966 2265 c-3 -9 -6 -22 -5 -28 0 -7 5 -1 10 12 5 13 8 26 5 28 -2 2
-6 -3 -10 -12z"/>
<path d="M2724 2010 c0 -151 2 -213 3 -137 2 75 2 199 0 275 -1 75 -3 13 -3
-138z"/>
<path d="M3695 2190 c10 -11 20 -20 23 -20 3 0 -3 9 -13 20 -10 11 -20 20 -23
20 -3 0 3 -9 13 -20z"/>
<path d="M2480 2175 c0 -16 -6 -25 -15 -25 -11 0 -15 -11 -15 -40 0 -22 5 -40
10 -40 6 0 10 -4 10 -10 0 -5 -5 -9 -12 -7 -6 1 -13 -7 -15 -18 -3 -16 -2 -17
6 -6 17 25 25 -36 12 -91 -6 -27 -11 -57 -10 -66 0 -9 7 8 14 38 15 60 32 290
22 290 -4 0 -7 -11 -7 -25z m0 -75 c0 -5 -4 -10 -10 -10 -5 0 -10 5 -10 10 0
6 5 10 10 10 6 0 10 -4 10 -10z"/>
<path d="M912 2035 c0 -16 2 -22 5 -12 2 9 2 23 0 30 -3 6 -5 -1 -5 -18z"/>
<path d="M893 1918 c-2 -39 -7 -76 -13 -82 -13 -13 -13 -39 0 -31 6 4 10 -5
10 -20 0 -17 -4 -24 -12 -19 -8 5 -9 -2 -5 -26 4 -18 7 -56 8 -84 l1 -51 13
60 c14 63 20 325 8 325 -5 0 -9 -32 -10 -72z"/>
<path d="M2774 1865 c0 -71 1 -99 3 -62 2 37 2 96 0 130 -2 34 -3 4 -3 -68z"/>
<path d="M1501 1878 c-17 -23 -31 -47 -31 -54 0 -6 -7 -17 -15 -24 -13 -11
-75 -123 -75 -136 0 -3 4 -3 9 0 24 15 15 -31 -25 -130 -24 -60 -44 -115 -44
-121 0 -7 -4 -13 -8 -13 -4 0 -9 -12 -10 -26 -1 -14 -5 -31 -9 -37 -4 -7 -6
-21 -5 -32 2 -12 -2 -32 -8 -45 -10 -25 -10 -25 -5 3 4 19 1 27 -9 27 -18 0
-31 -75 -22 -130 4 -26 2 -40 -7 -43 -9 -4 -9 -6 1 -6 15 -1 16 -31 1 -31 -6
0 -9 -7 -5 -15 3 -8 2 -15 -2 -15 -23 0 11 -323 37 -354 15 -18 15 -18 -6 -7
-12 6 -25 20 -28 31 -4 11 -11 17 -17 14 -7 -5 -9 0 -6 14 4 12 2 20 -3 16 -5
-3 -9 0 -9 6 0 6 -4 9 -10 5 -11 -7 -58 60 -63 90 -1 11 -8 29 -15 40 l-11 20
0 -20 c0 -32 88 -185 137 -237 19 -21 35 -28 61 -27 39 0 91 17 59 18 -10 1
-18 8 -18 17 0 11 5 14 16 10 9 -4 23 -1 30 5 8 6 21 9 29 5 19 -7 47 3 39 15
-3 5 1 6 9 3 8 -3 19 2 26 10 7 8 20 12 28 9 11 -4 14 -2 9 5 -9 15 -1 15 24
2 15 -8 17 -7 12 12 -3 14 -1 19 6 14 7 -4 12 -3 12 3 0 6 7 7 17 4 10 -4 14
-2 9 5 -8 13 33 44 47 35 6 -3 7 -1 3 5 -4 7 -1 12 8 12 8 0 29 13 46 30 37
36 29 39 -14 6 -48 -36 -235 -132 -296 -151 -30 -10 -64 -22 -74 -27 -16 -9
-24 -5 -43 18 -22 28 -23 33 -19 219 5 218 27 369 77 515 34 102 115 271 173
360 20 30 36 59 36 65 -1 5 -9 -6 -20 -25 -11 -19 -19 -31 -20 -26 0 6 -6 1
-14 -10 -8 -11 -18 -15 -23 -10 -4 5 -3 11 4 13 7 2 10 10 7 17 -3 7 7 21 21
30 14 9 23 22 19 28 -4 5 0 14 7 19 7 4 11 11 7 14 -3 3 -20 -13 -37 -37z
m-79 -183 c-4 -26 -22 -35 -22 -12 0 10 18 37 26 37 1 0 -1 -11 -4 -25z"/>
<path d="M1566 1894 c-5 -14 -4 -15 9 -4 17 14 19 20 6 20 -5 0 -12 -7 -15
-16z"/>
<path d="M4621 1844 c0 -11 3 -14 6 -6 3 7 2 16 -1 19 -3 4 -6 -2 -5 -13z"/>
<path d="M2426 1789 c-9 -34 -15 -63 -13 -66 2 -2 12 24 21 58 10 33 16 63 13
65 -2 2 -11 -24 -21 -57z"/>
<path d="M4016 1825 c4 -11 13 -27 19 -35 7 -8 27 -41 45 -72 17 -32 34 -58
37 -58 6 0 -68 135 -90 162 -15 20 -17 21 -11 3z"/>
<path d="M3061 1774 c0 -11 3 -14 6 -6 3 7 2 16 -1 19 -3 4 -6 -2 -5 -13z"/>
<path d="M3080 1718 c-1 -19 86 -218 95 -218 3 0 -2 17 -11 38 -9 20 -24 57
-33 82 -19 49 -50 109 -51 98z"/>
<path d="M2730 1677 c0 -12 6 -17 17 -15 26 5 28 34 3 34 -13 0 -20 -7 -20
-19z"/>
<path d="M4622 1680 c0 -14 2 -19 5 -12 2 6 2 18 0 25 -3 6 -5 1 -5 -13z"/>
<path d="M3131 1654 c0 -11 3 -14 6 -6 3 7 2 16 -1 19 -3 4 -6 -2 -5 -13z"/>
<path d="M2369 1631 c-9 -24 -14 -29 -20 -19 -6 9 -9 6 -10 -12 0 -14 -3 -19
-6 -12 -8 20 -21 14 -37 -18 -8 -16 -11 -30 -6 -30 4 0 10 -11 12 -25 3 -13 2
-22 -2 -20 -4 3 -11 -10 -14 -28 -6 -28 -8 -30 -17 -14 -8 14 -7 23 4 35 8 9
12 23 9 31 -5 14 -11 4 -54 -79 -7 -14 -28 -47 -46 -74 -24 -35 -31 -51 -23
-59 16 -16 13 -30 -5 -23 -8 3 -12 2 -9 -4 3 -6 -4 -14 -17 -19 -13 -5 -46
-35 -73 -67 -27 -33 -57 -66 -66 -74 -9 -8 -14 -21 -11 -29 2 -8 0 -11 -5 -8
-16 10 -61 -45 -58 -72 1 -17 -9 -34 -32 -54 -18 -16 -32 -32 -29 -34 6 -6 71
53 142 127 58 61 166 196 232 291 62 87 169 305 157 317 -3 3 -10 -9 -16 -27z
m-49 -66 c0 -8 -4 -15 -10 -15 -5 0 -7 7 -4 15 4 8 8 15 10 15 2 0 4 -7 4 -15z
m-64 -121 c-3 -8 -2 -12 4 -9 6 3 10 4 10 1 0 -9 -42 -81 -50 -86 -4 -3 -12
-15 -19 -27 -7 -14 -17 -20 -27 -16 -13 5 -13 8 -1 22 8 9 18 26 21 37 4 12
15 29 26 39 11 10 20 26 20 37 0 10 5 18 11 18 6 0 8 -7 5 -16z m-301 -403 c3
-6 -3 -15 -14 -20 -18 -10 -21 -3 -12 27 2 6 20 1 26 -7z"/>
<path d="M2205 1370 c-3 -5 -1 -10 4 -10 6 0 11 5 11 10 0 6 -2 10 -4 10 -3 0
-8 -4 -11 -10z"/>
<path d="M2185 1329 c-4 -6 -5 -12 -2 -15 2 -3 7 2 10 11 7 17 1 20 -8 4z"/>
<path d="M1360 1630 c-6 -11 -8 -25 -5 -30 3 -6 1 -10 -4 -10 -6 0 -11 -4 -11
-10 0 -5 7 -10 16 -10 12 0 15 6 11 22 -3 12 -2 30 4 40 5 10 7 18 5 18 -3 0
-10 -9 -16 -20z"/>
<path d="M4121 1645 c0 -5 6 -21 14 -35 8 -14 14 -20 14 -15 0 6 -6 21 -14 35
-8 14 -14 21 -14 15z"/>
<path d="M3167 1601 c-3 -12 -1 -19 4 -16 9 6 39 -46 39 -70 0 -8 4 -15 9 -15
10 0 37 -61 33 -75 -2 -5 0 -7 3 -3 8 8 86 -102 80 -112 -2 -4 2 -7 10 -7 8 0
-1 21 -26 58 -21 31 -63 103 -92 159 -42 78 -56 97 -60 81z"/>
<path d="M900 1512 c0 -70 69 -339 115 -445 21 -48 40 -85 43 -82 3 3 -1 17
-9 32 -11 20 -11 27 -2 30 10 4 9 12 -3 34 -8 17 -12 39 -9 50 4 11 2 25 -3
32 -5 7 -12 29 -16 50 -4 23 -11 35 -18 31 -7 -4 -8 1 -3 16 5 15 4 20 -4 16
-7 -4 -10 0 -9 11 3 35 -2 64 -10 59 -5 -3 -6 9 -4 26 3 21 1 29 -7 24 -7 -5
-11 0 -11 13 0 11 -7 24 -16 29 -11 6 -18 27 -20 62 -6 70 -14 77 -14 12z"/>
<path d="M1324 1549 c-4 -7 -3 -9 4 -5 5 3 13 0 15 -6 4 -9 6 -10 6 -1 1 17
-16 25 -25 12z"/>
<path d="M4601 1514 c0 -11 3 -14 6 -6 3 7 2 16 -1 19 -3 4 -6 -2 -5 -13z"/>
<path d="M920 1486 c0 -9 5 -16 10 -16 6 0 10 4 10 9 0 6 -4 13 -10 16 -5 3
-10 -1 -10 -9z"/>
<path d="M4180 1495 c0 -5 5 -17 10 -25 5 -8 10 -10 10 -5 0 6 -5 17 -10 25
-5 8 -10 11 -10 5z"/>
<path d="M3191 1470 c14 -31 19 -36 19 -24 0 6 -7 19 -16 30 -14 18 -14 18 -3
-6z"/>
<path d="M4574 1433 c-4 -10 -6 -24 -5 -30 1 -7 -3 -13 -10 -13 -7 0 -9 10 -7
25 10 48 -10 24 -22 -27 -16 -66 -93 -299 -130 -393 -53 -133 -160 -320 -160
-279 0 6 4 14 9 20 39 38 38 374 -1 548 -7 30 -13 43 -16 32 -3 -15 -6 -16
-12 -5 -5 7 -7 -5 -5 -32 l4 -44 -9 42 c-5 24 -14 51 -20 60 -10 16 -10 16 -6
-2 34 -133 56 -305 56 -446 0 -177 -14 -214 -83 -226 -31 -5 -41 -2 -63 21
-15 14 -22 26 -16 26 6 0 14 -4 17 -10 7 -12 25 -13 25 -2 0 4 -31 19 -68 34
-88 36 -208 105 -309 178 -46 32 -83 57 -83 55 0 -3 34 -30 75 -61 41 -31 75
-62 75 -70 0 -8 6 -11 18 -7 16 6 16 5 0 -12 -16 -17 -19 -17 -35 -3 -27 23
-47 33 -39 20 24 -39 243 -154 292 -154 19 0 32 -4 29 -8 -6 -10 22 -17 96
-26 l55 -6 43 51 c54 64 149 228 200 345 44 101 105 295 116 369 7 48 3 61
-11 30z m-337 -165 c-3 -7 -5 -2 -5 12 0 14 2 19 5 13 2 -7 2 -19 0 -25z
m-357 -469 c0 -4 -7 -6 -15 -3 -8 4 -15 10 -15 15 0 4 7 6 15 3 8 -4 15 -10
15 -15z"/>
<path d="M4212 1400 c0 -14 3 -34 8 -45 l9 -20 -1 20 c0 11 -4 31 -8 45 l-8
25 0 -25z"/>
<path d="M3350 1276 c0 -8 5 -18 10 -21 6 -3 10 -13 10 -22 0 -13 -2 -14 -17
-2 -20 16 27 -52 65 -93 14 -15 30 -25 35 -21 6 3 7 1 3 -5 -4 -7 10 -30 33
-54 49 -50 55 -44 9 8 -27 30 -29 35 -10 25 15 -8 22 -8 22 -1 0 6 5 8 11 4 8
-5 8 -8 0 -14 -9 -5 -8 -10 4 -20 12 -10 15 -10 15 1 0 7 14 0 33 -16 17 -17
8 -4 -22 27 -31 33 -59 54 -67 51 -8 -3 -14 -1 -14 5 0 6 5 12 11 14 6 2 1 12
-11 23 -21 19 -21 19 -14 -1 5 -15 4 -16 -4 -4 -6 8 -8 18 -6 22 6 9 -75 108
-88 108 -4 0 -8 -6 -8 -14z m50 -44 c0 -3 -9 3 -20 13 -11 10 -20 23 -20 28 0
6 9 0 20 -13 11 -13 20 -25 20 -28z m0 -27 c14 -16 10 -18 -14 -9 -9 3 -16 10
-16 15 0 14 16 11 30 -6z"/>
<path d="M3545 1011 c-3 -5 -1 -12 5 -16 5 -3 10 1 10 9 0 18 -6 21 -15 7z"/>
<path d="M1827 966 c-27 -24 -41 -43 -32 -43 8 0 13 2 11 4 -2 2 15 22 38 43
55 53 43 50 -17 -4z"/>
<path d="M1073 943 c9 -20 13 -23 15 -10 2 10 8 15 13 12 5 -3 6 1 2 10 -5 13
-7 14 -14 3 -7 -10 -9 -10 -9 0 0 6 -4 12 -10 12 -6 0 -5 -11 3 -27z"/>
<path d="M3635 920 c10 -11 20 -20 23 -20 3 0 -3 9 -13 20 -10 11 -20 20 -23
20 -3 0 3 -9 13 -20z"/>
<path d="M3710 856 c0 -2 7 -7 16 -10 8 -3 12 -2 9 4 -6 10 -25 14 -25 6z"/>
<path d="M1176 820 c7 -28 12 -35 18 -29 2 2 -2 15 -10 29 l-15 25 7 -25z"/>
</g>
</svg>
